Coordinates
version=1
nRows=12
nColumns=24
inDegrees=yes

Units are S.I. units (second, meters, Newtons, ...)
Angles are in degrees.

endheader
time	pelvis_tilt	pelvis_list	pelvis_rotation	pelvis_tx	pelvis_ty	pelvis_tz	hip_flexion_r	hip_adduction_r	hip_rotation_r	knee_angle_r	ankle_angle_r	subtalar_angle_r	mtp_angle_r	hip_flexion_l	hip_adduction_l	hip_rotation_l	knee_angle_l	ankle_angle_l	subtalar_angle_l	mtp_angle_l	lumbar_extension	lumbar_bending	lumbar_rotation
      0.72416667	      7.47095827	     -5.20487655	      3.61770436	     -0.39476797	      1.01168933	      0.30993764	      1.70023690	     10.78070939	     -0.61872157	    -15.08150521	      4.33420731	    -15.33175031	     -5.47311395	     12.22690046	     -6.02252394	      1.59350288	    -70.15506739	     -8.71210838	     -9.58938335	      1.31721442	     -9.37183442	      9.20907796	      2.28715426
      0.72833333	      7.49276716	     -5.06653873	      3.57020188	     -0.38956866	      1.01256853	      0.31017833	      1.10972911	     10.65300363	     -0.57649087	    -14.66700860	      4.41312281	    -15.15568835	     -5.48047080	     12.79792513	     -5.80646158	      1.62381207	    -69.96835282	     -8.14154195	     -9.84068086	      1.26864202	     -9.43534044	      9.03950405	      2.39777607
      0.73250000	      7.51366821	     -4.92678951	      3.50949651	     -0.38436833	      1.01343171	      0.31042646	      0.52161559	     10.52139844	     -0.52579258	    -14.25575809	      4.48804417	    -14.97876376	     -5.48991170	     13.34368060	     -5.59095004	      1.63850097	    -69.70696044	     -7.56383109	    -10.07210035	      1.21081144	     -9.50149313	      8.86485686	      2.51853806
      0.73666667	      7.55267018	     -4.77211655	      3.43859236	     -0.37915547	      1.01431233	      0.31066976	     -0.09390705	     10.37164818	     -0.46238211	    -13.83391270	      4.57338600	    -14.76893885	     -5.50768341	     13.83823538	     -5.36230444	      1.63517037	    -69.36393092	     -7.00242827	    -10.26083016	      1.10961503	     -9.58378655	      8.68587362	      2.69089477
      0.74083333	      7.52939663	     -4.62409268	      3.34600920	     -0.37397447	      1.01505141	      0.31092669	     -0.61632669	     10.22446027	     -0.38053609	    -13.46348579	      4.66548103	    -14.65296612	     -5.51332926	     14.38746487	     -5.13832211	      1.61459968	    -68.97359336	     -6.40543448	    -10.47341932	      1.07538274	     -9.59855629	      8.51261151	      2.76519343
      0.74500000	      7.58239564	     -4.47447555	      3.25000586	     -0.36876239	      1.01587046	      0.31120375	     -1.24318692	     10.07693832	     -0.29967350	    -13.04914044	      4.74960892	    -14.44059106	     -5.53212522	     14.81920450	     -4.93462417	      1.56634074	    -68.49896040	     -5.82180025	    -10.60624017	      0.97595929	     -9.69687010	      8.31819599	      2.97015753
      0.74916667	      7.57584521	     -4.33410398	      3.14152699	     -0.36357988	      1.01654686	      0.31147508	     -1.78552175	      9.93306473	     -0.20765546	    -12.67173911	      4.84578059	    -14.25509467	     -5.55569685	     15.30508874	     -4.73588136	      1.51409533	    -67.98052857	     -5.22040383	    -10.73578946	      0.85853313	     -9.73620177	      8.13603927	      3.14710359
      0.75333333	      7.57887893	     -4.19103318	      3.01876112	     -0.35839383	      1.01720637	      0.31175551	     -2.33703363	      9.78403870	     -0.10434811	    -12.29826009	      4.94201035	    -14.08519642	     -5.58140618	     15.75182350	     -4.54005701	      1.44229023	    -67.39196627	     -4.62191369	    -10.85871513	      0.73761687	     -9.78253308	      7.95519696	      3.30982195
      0.75750000	      7.54030668	     -4.04661722	      2.87906855	     -0.35322903	      1.01776320	      0.31204436	     -2.82726996	      9.62869129	      0.01752165	    -11.95592929	      5.03030579	    -13.95558207	     -5.59131761	     16.22527929	     -4.34299672	      1.35503571	    -66.74855841	     -4.01866304	    -10.98704339	      0.68955057	     -9.78912067	      7.77065594	      3.40061426
      0.76166667	      7.56152693	     -3.90634536	      2.72806600	     -0.34804032	      1.01836012	      0.31233864	     -3.39544322	      9.47498510	      0.14027319	    -11.58712816	      5.12049339	    -13.78241505	     -5.60591980	     16.60011069	     -4.16949492	      1.23834453	    -66.03106916	     -3.41669234	    -11.04615525	      0.62092353	     -9.84884044	      7.59547217	      3.57256933
      0.76583333	      7.56954209	     -3.77991840	      2.60013434	     -0.34286080	      1.01887518	      0.31260714	     -3.95229979	      9.33683113	      0.25612851	    -11.20486490	      5.22833476	    -13.58165876	     -5.63309665	     16.98244799	     -4.00240660	      1.15492530	    -65.27051317	     -2.85358568	    -11.07834203	      0.49697361	     -9.90838834	      7.42873734	      3.81300507
      0.77000000	      7.54768751	     -3.64931520	      2.43015016	     -0.33769460	      1.01931255	      0.31290132	     -4.45230145	      9.18478413	      0.39187176	    -10.87316152	      5.31516816	    -13.43662748	     -5.64929575	     17.36613447	     -3.84158675	      1.02285679	    -64.44628325	     -2.27355087	    -11.14008690	      0.42327655	     -9.92538652	      7.26400059	      3.93401570
